# xmcd database file
#
# Track frame offsets:
# 150
# 18303
# 37835
# 57534
# 78738
# 98061
# 118415
# 133600
# 155577
# 169062
#
# Disc length: 2464 seconds
#
# Revision: 0
# Processed by: cddbd v1.5.1PL0 Copyright (c) Steve Scherf et al.
# Submitted via: CD-Runner 2005.30
#
DISCID=82099e0a
DTITLE=Bobby Warren - I Slipped Up
DYEAR=2005
DGENRE=Blues
TTITLE0=I Slipped Up
TTITLE1=You Ain't Right
TTITLE2=Sacred Ground
TTITLE3=Time Has Come For Us To Be Free
TTITLE4=Save The Last Dance
TTITLE5=All I'll Ever Need
TTITLE6=Anywhere But Here
TTITLE7=How Much Longer
TTITLE8=Must Have Been An Angel
TTITLE9=3 o'clock in The Morning
EXTD=
EXTT0=
EXTT1=
EXTT2=
EXTT3=
EXTT4=
EXTT5=
EXTT6=
EXTT7=
EXTT8=
EXTT9=
PLAYORDER=
